<svg width="123" height="102" viewBox="0 0 123 102" fill="none" xmlns="http://www.w3.org/2000/svg">
<path d="M102.12 56.95C103.41 54.656 104.34 52.177 104.87 49.6C106.11 43.502 105.13 37.165 102.12 31.719C99.12 26.273 94.27 22.072 88.46 19.865C82.64 17.658 76.23 17.589 70.36 19.669C64.5 21.75 59.5699 25.846 56.4399 31.225C36.6699 31.575 20.39 45.007 18.16 62.157C13.39 62.78 9 65.066 5.75 68.611C2.5 72.156 0.610024 76.734 0.400024 81.538C0.710024 87.044 3.18003 92.205 7.28003 95.894C11.38 99.583 16.77 101.5 22.27 101.225H66.02C67.19 101.225 68.3 100.764 69.12 99.944C69.94 99.124 70.4 98.011 70.4 96.85C70.4 95.69 69.94 94.577 69.12 93.757C68.3 92.936 67.19 92.475 66.02 92.475H22.27C19.09 92.732 15.93 91.731 13.48 89.686C11.03 87.641 9.47002 84.716 9.15002 81.538C9.47002 78.36 11.03 75.435 13.48 73.39C15.93 71.345 19.09 70.344 22.27 70.6C23.44 70.6 24.55 70.139 25.37 69.319C26.19 68.499 26.65 67.386 26.65 66.225C26.65 51.744 40.39 39.975 57.27 39.975C63.54 39.752 69.72 41.458 74.99 44.861C80.26 48.264 84.35 53.202 86.72 59.007C86.98 59.796 87.46 60.496 88.1 61.022C88.74 61.549 89.52 61.882 90.35 61.982C91.95 62.194 93.52 62.59 95.03 63.163C97.97 64.182 100.53 66.063 102.38 68.561C104.23 71.059 105.28 74.057 105.4 77.163C105.09 81.505 103.07 85.548 99.8 88.414C96.5201 91.281 92.25 92.74 87.9 92.475H83.52C82.36 92.475 81.2501 92.936 80.4301 93.757C79.6101 94.577 79.15 95.69 79.15 96.85C79.15 98.011 79.6101 99.124 80.4301 99.944C81.2501 100.764 82.36 101.225 83.52 101.225H87.9C94.57 101.498 101.07 99.12 105.99 94.611C110.91 90.102 113.84 83.829 114.15 77.163C114.08 73.036 112.94 68.999 110.83 65.453C108.72 61.907 105.71 58.975 102.12 56.95ZM66.55 32.275C68.97 29.768 72.08 28.038 75.48 27.308C78.89 26.579 82.43 26.881 85.67 28.178C88.9 29.475 91.67 31.706 93.63 34.587C95.58 37.468 96.64 40.868 96.65 44.35C96.64 45.525 96.5301 46.697 96.3 47.85C95.86 49.86 95.0599 51.773 93.9399 53.494C91.3999 48.028 87.5899 43.249 82.8199 39.558C78.0599 35.866 72.48 33.369 66.55 32.275Z" fill="url(#paint0_linear_3_50)"/>
<path d="M102.12 56.95C103.41 54.656 104.34 52.177 104.88 49.6C106.11 43.502 105.13 37.165 102.12 31.719C99.12 26.273 94.27 22.072 88.46 19.865C82.64 17.658 76.23 17.589 70.36 19.669C64.5 21.75 59.5699 25.846 56.4399 31.225C58.1799 31.159 62.63 31.276 66.55 32.275C68.97 29.768 72.08 28.038 75.48 27.308C78.89 26.579 82.43 26.881 85.67 28.178C88.9 29.475 91.67 31.706 93.63 34.587C95.58 37.468 96.64 40.868 96.65 44.35C96.64 45.525 96.53 46.697 96.3 47.85C95.8601 49.86 95.0599 51.773 93.9399 53.494C95.7499 54.063 99.91 55.55 102.12 56.95Z" fill="url(#paint1_linear_3_50)"/>
<path d="M118.52 39.975H114.15C112.99 39.975 111.88 40.436 111.06 41.257C110.24 42.077 109.77 43.19 109.77 44.35C109.77 45.51 110.24 46.623 111.06 47.444C111.88 48.264 112.99 48.725 114.15 48.725H118.52C119.69 48.725 120.8 48.264 121.62 47.444C122.44 46.623 122.9 45.51 122.9 44.35C122.9 43.19 122.44 42.077 121.62 41.257C120.8 40.436 119.69 39.975 118.52 39.975Z" fill="url(#paint2_linear_3_50)"/>
<path d="M79.15 13.725C80.31 13.725 81.42 13.264 82.24 12.444C83.06 11.623 83.52 10.51 83.52 9.35001V4.97501C83.52 3.81501 83.06 2.70199 82.24 1.88199C81.42 1.06099 80.31 0.600006 79.15 0.600006C77.99 0.600006 76.8801 1.06099 76.0601 1.88199C75.2401 2.70199 74.77 3.81501 74.77 4.97501V9.35001C74.77 10.51 75.2401 11.623 76.0601 12.444C76.8801 13.264 77.99 13.725 79.15 13.725Z" fill="url(#paint3_linear_3_50)"/>
<path d="M103.47 24.006C104.05 24.004 104.63 23.887 105.16 23.662C105.69 23.436 106.18 23.107 106.58 22.694L109.64 19.544C110.35 18.697 110.71 17.615 110.65 16.513C110.6 15.412 110.12 14.373 109.33 13.604C108.54 12.835 107.49 12.394 106.39 12.367C105.29 12.341 104.21 12.732 103.39 13.463L100.32 16.613C99.7299 17.232 99.3399 18.01 99.1899 18.851C99.0299 19.692 99.1299 20.56 99.4699 21.346C99.7999 22.133 100.36 22.804 101.07 23.277C101.78 23.75 102.62 24.003 103.47 24.006Z" fill="url(#paint4_linear_3_50)"/>
<path d="M52.55 22.476C52.95 22.937 53.4499 23.308 54.0099 23.564C54.5699 23.82 55.17 23.956 55.79 23.963C56.87 23.972 57.9099 23.583 58.7199 22.869C59.1499 22.486 59.5099 22.021 59.7599 21.5C60.0099 20.98 60.1599 20.414 60.1899 19.836C60.2199 19.258 60.1399 18.68 59.9499 18.134C59.7599 17.588 59.4599 17.086 59.0699 16.657L56.18 13.726C55.4 12.913 54.3399 12.432 53.2099 12.385C52.0799 12.338 50.98 12.727 50.14 13.472C49.29 14.217 48.76 15.259 48.67 16.383C48.57 17.506 48.9099 18.623 49.6199 19.501L52.55 22.476Z" fill="url(#paint5_linear_3_50)"/>
<defs>
<linearGradient id="paint0_linear_3_50" x1="57.27" y1="18.158" x2="57.27" y2="101.251" gradientUnits="userSpaceOnUse">
<stop stop-color="#A1D2FA"/>
<stop offset="1" stop-color="#DCE2F6"/>
</linearGradient>
<linearGradient id="paint1_linear_3_50" x1="80.92" y1="18.158" x2="80.92" y2="56.95" gradientUnits="userSpaceOnUse">
<stop stop-color="#FAC86A"/>
<stop offset="1" stop-color="#F1674C"/>
</linearGradient>
<linearGradient id="paint2_linear_3_50" x1="116.34" y1="39.975" x2="116.34" y2="48.725" gradientUnits="userSpaceOnUse">
<stop stop-color="#FAC86A"/>
<stop offset="1" stop-color="#F1674C"/>
</linearGradient>
<linearGradient id="paint3_linear_3_50" x1="79.15" y1="0.600006" x2="79.15" y2="13.725" gradientUnits="userSpaceOnUse">
<stop stop-color="#FAC86A"/>
<stop offset="1" stop-color="#F1674C"/>
</linearGradient>
<linearGradient id="paint4_linear_3_50" x1="104.89" y1="12.366" x2="104.89" y2="24.006" gradientUnits="userSpaceOnUse">
<stop stop-color="#FAC86A"/>
<stop offset="1" stop-color="#F1674C"/>
</linearGradient>
<linearGradient id="paint5_linear_3_50" x1="54.4199" y1="12.381" x2="54.4199" y2="23.963" gradientUnits="userSpaceOnUse">
<stop stop-color="#FAC86A"/>
<stop offset="1" stop-color="#F1674C"/>
</linearGradient>
</defs>
</svg>
