<svg width="138" height="89" viewBox="0 0 138 89" fill="none" xmlns="http://www.w3.org/2000/svg">
<path d="M72.7 5.43999C67.31 8.936 63.07 13.952 60.53 19.855C55.93 20.835 49.8101 23.797 49.8101 23.797L65.17 25.347C65.17 25.347 66.02 24.402 66.21 23.797C68.02 18.751 71.37 14.403 75.79 11.369C80.21 8.33498 85.47 6.769 90.83 6.894C104.96 6.894 116.45 17.383 116.45 30.278C116.45 31.164 116.8 32.013 117.43 32.64C118.05 33.266 118.9 33.618 119.79 33.618C122.59 33.49 125.33 34.47 127.41 36.346C129.49 38.222 130.75 40.842 130.91 43.64C130.75 46.437 129.49 49.058 127.41 50.933C125.33 52.809 122.59 53.789 119.79 53.661H104.19C103.3 53.661 102.45 54.013 101.83 54.64C101.2 55.266 100.85 56.116 100.85 57.002C100.85 57.888 101.2 58.737 101.83 59.364C102.45 59.99 103.3 60.342 104.19 60.342H119.79C124.36 60.477 128.8 58.796 132.14 55.666C135.48 52.536 137.44 48.212 137.59 43.64C137.49 39.615 135.96 35.757 133.28 32.75C130.6 29.742 126.95 27.778 122.96 27.204C121.84 19.549 117.95 12.571 112.03 7.59499C106.11 2.61999 98.56 -0.00699493 90.83 0.213005C84.4 0.125005 78.09 1.94399 72.7 5.43999Z" fill="url(#paint0_linear_3_51)"/>
<path d="M90.0099 41.775C87.0499 34.911 82.1299 29.078 75.8599 25.013C69.5899 20.948 62.2499 18.833 54.7799 18.935C45.7899 18.679 37.0099 21.734 30.1299 27.52C23.2399 33.305 18.7099 41.419 17.4099 50.321C12.7799 50.988 8.52992 53.272 5.41992 56.769C2.29992 60.266 0.529902 64.751 0.399902 69.432C0.579902 74.748 2.85987 79.776 6.73987 83.416C10.6199 87.055 15.7899 89.01 21.0999 88.853H39.2399C40.2699 88.853 41.2599 88.444 41.9899 87.715C42.7199 86.987 43.1299 85.999 43.1299 84.969C43.1299 83.939 42.7199 82.951 41.9899 82.222C41.2599 81.494 40.2699 81.084 39.2399 81.084H21.0999C17.8499 81.233 14.6699 80.093 12.2399 77.912C9.81987 75.731 8.35992 72.684 8.16992 69.432C8.35992 66.179 9.81987 63.132 12.2399 60.951C14.6699 58.77 17.8499 57.63 21.0999 57.779C22.1299 57.779 23.1199 57.369 23.8499 56.641C24.5799 55.912 24.9899 54.924 24.9899 53.894C24.9899 38.901 38.3499 26.704 54.7799 26.704C61.0099 26.559 67.1299 28.379 72.2699 31.907C77.4099 35.435 81.2999 40.491 83.4099 46.359C83.6299 47.062 84.0499 47.687 84.6099 48.161C85.1799 48.636 85.8598 48.94 86.5898 49.039C90.5698 49.46 94.2699 51.309 96.9899 54.245C99.7099 57.18 101.27 61.003 101.39 65.003C101.24 69.41 99.3499 73.577 96.1299 76.591C92.9099 79.605 88.6299 81.221 84.2198 81.084H54.7799C53.7499 81.084 52.7599 81.494 52.0299 82.222C51.3099 82.951 50.8999 83.939 50.8999 84.969C50.8999 85.999 51.3099 86.987 52.0299 87.715C52.7599 88.444 53.7499 88.853 54.7799 88.853H84.2198C90.6898 88.978 96.9399 86.54 101.61 82.072C106.28 77.603 109 71.467 109.16 65.003C109.06 59.538 107.11 54.267 103.64 50.049C100.16 45.831 95.3599 42.915 90.0099 41.775Z" fill="url(#paint1_linear_3_51)"/>
<defs>
<linearGradient id="paint0_linear_3_51" x1="93.7" y1="0.200005" x2="93.7" y2="60.35" gradientUnits="userSpaceOnUse">
<stop stop-color="#9EA8E1"/>
<stop offset="1" stop-color="#D0D7F1"/>
</linearGradient>
<linearGradient id="paint1_linear_3_51" x1="54.7799" y1="18.92" x2="54.7799" y2="88.862" gradientUnits="userSpaceOnUse">
<stop stop-color="#A1D2FA"/>
<stop offset="1" stop-color="#DCE2F6"/>
</linearGradient>
</defs>
</svg>
