<svg width="124" height="93" viewBox="0 0 124 93" fill="none" xmlns="http://www.w3.org/2000/svg">
<path d="M122.9 42.325C122.673 41.656 122.289 41.052 121.778 40.565C121.268 40.077 120.647 39.72 119.969 39.525C112.945 37.5 106.907 32.972 102.997 26.797C99.087 20.621 97.576 13.226 98.75 6.01198C98.891 5.28698 98.847 4.53898 98.621 3.83598C98.395 3.13298 97.995 2.49899 97.457 1.99199C96.92 1.48499 96.264 1.12298 95.549 0.938981C94.834 0.753981 94.084 0.753997 93.369 0.936997C87.598 2.122 82.332 5.05498 78.286 9.33598C74.239 13.617 71.608 19.04 70.75 24.868C66.393 23.483 61.846 22.789 57.275 22.812C37.106 22.812 20.394 36.375 18.162 53.787C13.401 54.409 9.01198 56.689 5.76398 60.225C2.51498 63.761 0.616024 68.328 0.400024 73.125C0.705024 78.63 3.177 83.792 7.276 87.481C11.375 91.17 16.767 93.086 22.275 92.812H39.775C40.935 92.812 42.048 92.351 42.868 91.531C43.689 90.71 44.15 89.597 44.15 88.437C44.15 87.277 43.689 86.164 42.868 85.343C42.048 84.523 40.935 84.062 39.775 84.062H22.275C19.091 84.319 15.934 83.317 13.48 81.272C11.026 79.228 9.47202 76.302 9.15002 73.125C9.47202 69.947 11.026 67.022 13.48 64.977C15.934 62.932 19.091 61.93 22.275 62.187C23.435 62.187 24.548 61.726 25.368 60.906C26.189 60.085 26.65 58.972 26.65 57.812C26.65 43.331 40.387 31.562 57.275 31.562C63.546 31.342 69.733 33.054 74.999 36.466C80.265 39.877 84.356 44.824 86.719 50.637C86.986 51.419 87.468 52.109 88.111 52.627C88.753 53.146 89.53 53.472 90.35 53.568C94.275 53.838 97.967 55.527 100.737 58.321C103.507 61.115 105.165 64.822 105.4 68.75C105.085 73.091 103.072 77.134 99.796 80.001C96.519 82.868 92.245 84.327 87.9 84.062H57.275C56.115 84.062 55.002 84.523 54.181 85.343C53.361 86.164 52.9 87.277 52.9 88.437C52.9 89.597 53.361 90.71 54.181 91.531C55.002 92.351 56.115 92.812 57.275 92.812H87.9C94.567 93.085 101.072 90.707 105.991 86.198C110.91 81.689 113.843 75.415 114.15 68.75C114.128 64.02 112.595 59.421 109.775 55.625C114.616 53.667 118.846 50.449 122.025 46.306C122.483 45.763 122.802 45.117 122.954 44.423C123.107 43.73 123.088 43.009 122.9 42.325ZM104.481 48.362C103.982 48.524 103.51 48.76 103.081 49.062C100.396 47.336 97.437 46.079 94.331 45.343C91.194 38.3 85.87 32.455 79.15 28.675C79.22 25.196 80.203 21.798 82 18.819C83.796 15.84 86.344 13.385 89.387 11.7C89.523 18.714 91.582 25.556 95.339 31.481C99.096 37.406 104.407 42.185 110.694 45.3C108.75 46.697 106.572 47.734 104.262 48.362H104.481Z" fill="url(#paint0_linear_3_48)"/>
<path d="M122.9 42.325C122.674 41.656 122.289 41.052 121.778 40.565C121.268 40.077 120.647 39.72 119.969 39.525C112.945 37.5 106.907 32.972 102.997 26.797C99.087 20.621 97.576 13.226 98.75 6.01198C98.891 5.28698 98.847 4.53898 98.621 3.83598C98.395 3.13298 97.995 2.49899 97.458 1.99199C96.92 1.48499 96.264 1.12298 95.549 0.938981C94.834 0.753981 94.084 0.753997 93.369 0.936997C87.598 2.122 82.332 5.05498 78.286 9.33598C74.239 13.617 71.608 19.04 70.75 24.868C72.383 25.408 76.35 26.925 79.15 28.675C79.22 25.196 80.203 21.798 82 18.819C83.796 15.84 86.344 13.385 89.388 11.7C89.523 18.714 91.582 25.556 95.339 31.481C99.096 37.406 104.407 42.185 110.694 45.3C108.751 46.697 106.572 47.734 104.263 48.362H104.481C103.982 48.524 103.51 48.76 103.081 49.062C104.554 50.171 107.955 53.035 109.775 55.625C114.617 53.667 118.846 50.449 122.025 46.306C122.483 45.763 122.802 45.117 122.955 44.423C123.107 43.73 123.088 43.009 122.9 42.325Z" fill="url(#paint1_linear_3_48)"/>
<defs>
<linearGradient id="paint0_linear_3_48" x1="61.728" y1="0.799989" x2="61.728" y2="92.838" gradientUnits="userSpaceOnUse">
<stop stop-color="#A1D2FA"/>
<stop offset="1" stop-color="#DCE2F6"/>
</linearGradient>
<linearGradient id="paint1_linear_3_48" x1="96.903" y1="0.799989" x2="96.903" y2="55.625" gradientUnits="userSpaceOnUse">
<stop stop-color="#FAFAFC"/>
<stop offset="1" stop-color="#CBD2E7"/>
</linearGradient>
</defs>
</svg>
