<svg width="93" height="123" viewBox="0 0 93 123" fill="none" xmlns="http://www.w3.org/2000/svg">
<path d="M71.1439 1.211C70.4029 0.682999 69.5159 0.400024 68.6069 0.400024C67.6969 0.400024 66.8099 0.682999 66.0689 1.211C60.5539 5.062 55.7809 9.87899 51.9819 15.43C51.6069 15.901 51.3329 16.445 51.1769 17.027C51.0219 17.609 50.9889 18.217 51.0789 18.813C51.1699 19.409 51.3829 19.979 51.7039 20.489C52.0259 20.998 52.449 21.436 52.947 21.775C53.446 22.113 54.009 22.345 54.601 22.455C55.194 22.566 55.8019 22.553 56.3889 22.417C56.9769 22.282 57.5289 22.026 58.0129 21.667C58.4969 21.308 58.9009 20.853 59.2009 20.33C61.8279 16.522 64.9969 13.117 68.6069 10.223C82.1689 21.205 86.457 35.992 82.476 44.086C81.142 46.639 79.1559 48.793 76.7199 50.329C74.2839 51.866 71.4849 52.731 68.6069 52.836C65.7289 52.731 62.929 51.866 60.494 50.329C58.058 48.793 56.0719 46.639 54.7379 44.086C53.5349 41.475 53.037 38.593 53.294 35.73C53.34 35.155 53.2729 34.577 53.0949 34.029C52.9179 33.48 52.634 32.972 52.26 32.534C51.887 32.095 51.4299 31.734 50.9169 31.472C50.4039 31.209 49.8439 31.051 49.2689 31.005C48.6949 30.959 48.1169 31.026 47.5679 31.204C47.0199 31.381 46.5119 31.665 46.0729 32.039C45.6349 32.412 45.2739 32.869 45.0109 33.382C44.7489 33.895 44.59 34.455 44.544 35.03C44.148 39.453 44.9169 43.903 46.7759 47.936C48.8449 51.981 51.9719 55.391 55.8229 57.802C59.6749 60.213 64.1079 61.536 68.6509 61.63C73.1939 61.536 77.626 60.213 81.478 57.802C85.329 55.391 88.4559 51.981 90.5259 47.936C97.0439 33.98 88.9509 13.855 71.1439 1.211Z" fill="url(#paint0_linear_3_53)"/>
<path d="M57.669 87.879C56.509 87.879 55.396 88.34 54.576 89.161C53.755 89.981 53.294 91.094 53.294 92.254C53.544 95.696 52.864 99.141 51.325 102.229C49.32 105.765 46.432 108.721 42.943 110.807C39.454 112.893 35.483 114.037 31.419 114.129C27.38 114.048 23.429 112.926 19.95 110.872C16.471 108.818 13.58 105.902 11.557 102.404C5.99999 91.773 12.125 72.26 31.419 58.217C38.376 63.154 44.194 69.524 48.482 76.898C48.769 77.398 49.152 77.836 49.609 78.188C50.065 78.54 50.587 78.798 51.143 78.949C51.7 79.099 52.281 79.138 52.852 79.064C53.424 78.99 53.976 78.804 54.475 78.517C54.975 78.229 55.414 77.847 55.766 77.39C56.117 76.933 56.376 76.412 56.526 75.855C56.677 75.299 56.716 74.718 56.642 74.146C56.568 73.574 56.382 73.023 56.094 72.523C50.631 63.092 43.016 55.087 33.869 49.16C33.15 48.681 32.305 48.425 31.441 48.425C30.577 48.425 29.732 48.681 29.013 49.16C6.08799 64.473 -4.98103 89.585 3.81297 106.385C6.56497 111.313 10.565 115.43 15.41 118.325C20.255 121.22 25.776 122.791 31.419 122.879C37.054 122.799 42.569 121.242 47.414 118.363C52.258 115.484 56.262 111.384 59.025 106.473C61.288 102.09 62.331 97.179 62.044 92.254C62.044 91.094 61.583 89.981 60.763 89.161C59.942 88.34 58.83 87.879 57.669 87.879Z" fill="url(#paint1_linear_3_53)"/>
<path d="M18.775 83.505C17.627 83.382 16.478 83.718 15.576 84.439C14.675 85.16 14.095 86.208 13.963 87.355C13.608 90.381 13.926 93.448 14.895 96.337C15.863 99.226 17.457 101.866 19.563 104.067C22.59 107.115 26.516 109.109 30.763 109.755H31.419C32.579 109.842 33.727 109.464 34.609 108.706C35.491 107.947 36.035 106.868 36.122 105.708C36.209 104.548 35.832 103.4 35.073 102.518C34.314 101.636 33.236 101.092 32.075 101.005C29.704 100.649 27.502 99.563 25.775 97.899C24.611 96.62 23.733 95.108 23.197 93.464C22.662 91.819 22.482 90.08 22.669 88.361C22.736 87.786 22.688 87.203 22.528 86.647C22.368 86.091 22.099 85.571 21.737 85.12C21.374 84.668 20.926 84.293 20.418 84.015C19.909 83.738 19.351 83.565 18.775 83.505Z" fill="url(#paint2_linear_3_53)"/>
<defs>
<linearGradient id="paint0_linear_3_53" x1="68.604" y1="0.400024" x2="68.604" y2="61.63" gradientUnits="userSpaceOnUse">
<stop stop-color="#7CB1F8"/>
<stop offset="1" stop-color="#3495E3"/>
</linearGradient>
<linearGradient id="paint1_linear_3_53" x1="31.445" y1="48.425" x2="31.445" y2="122.879" gradientUnits="userSpaceOnUse">
<stop stop-color="#7CB1F8"/>
<stop offset="1" stop-color="#3495E3"/>
</linearGradient>
<linearGradient id="paint2_linear_3_53" x1="24.978" y1="83.48" x2="24.978" y2="109.767" gradientUnits="userSpaceOnUse">
<stop stop-color="#7CB1F8"/>
<stop offset="1" stop-color="#3495E3"/>
</linearGradient>
</defs>
</svg>
