<svg width="141" height="98" viewBox="0 0 141 98" fill="none" xmlns="http://www.w3.org/2000/svg">
<path d="M67.0901 41C66.0001 41 64.9601 41.461 64.1901 42.281C63.4301 43.102 63 44.215 63 45.375C63 46.535 63.4301 47.648 64.1901 48.469C64.9601 49.289 66.0001 49.75 67.0901 49.75H83.4701C84.5601 49.75 85.6 49.289 86.37 48.469C87.13 47.648 87.5701 46.535 87.5701 45.375C87.5701 44.215 87.13 43.102 86.37 42.281C85.6 41.461 84.5601 41 83.4701 41H67.0901Z" fill="url(#paint0_linear_19_2)"/>
<path d="M61.4301 71H4.09998C3.00998 71 1.97007 71.461 1.20007 72.281C0.430073 73.102 0 74.215 0 75.375C0 76.535 0.430073 77.648 1.20007 78.469C1.97007 79.289 3.00998 79.75 4.09998 79.75H61.4301C62.5101 79.75 63.5501 79.289 64.3201 78.469C65.0901 77.648 65.52 76.535 65.52 75.375C65.52 74.215 65.0901 73.102 64.3201 72.281C63.5501 71.461 62.5101 71 61.4301 71Z" fill="url(#paint1_linear_19_2)"/>
<path d="M94.4301 89H37.1C36.01 89 34.9701 89.461 34.2001 90.281C33.4301 91.102 33 92.215 33 93.375C33 94.535 33.4301 95.648 34.2001 96.469C34.9701 97.289 36.01 97.75 37.1 97.75H94.4301C95.5101 97.75 96.5501 97.289 97.3201 96.469C98.0901 95.648 98.52 94.535 98.52 93.375C98.52 92.215 98.0901 91.102 97.3201 90.281C96.5501 89.461 95.5101 89 94.4301 89Z" fill="url(#paint2_linear_19_2)"/>
<path d="M64.6599 54H40.09C39.01 54 37.97 54.461 37.2 55.281C36.43 56.102 36 57.215 36 58.375C36 59.535 36.43 60.648 37.2 61.469C37.97 62.289 39.01 62.75 40.09 62.75H64.6599C65.7499 62.75 66.7899 62.289 67.5599 61.469C68.3299 60.648 68.76 59.535 68.76 58.375C68.76 57.215 68.3299 56.102 67.5599 55.281C66.7899 54.461 65.7499 54 64.6599 54Z" fill="url(#paint3_linear_19_2)"/>
<path d="M26.29 54H18.1C17.01 54 15.9701 54.461 15.2001 55.281C14.4301 56.102 14 57.215 14 58.375C14 59.535 14.4301 60.648 15.2001 61.469C15.9701 62.289 17.01 62.75 18.1 62.75H26.29C27.37 62.75 28.4101 62.289 29.1801 61.469C29.9501 60.648 30.38 59.535 30.38 58.375C30.38 57.215 29.9501 56.102 29.1801 55.281C28.4101 54.461 27.37 54 26.29 54Z" fill="url(#paint4_linear_19_2)"/>
<path d="M12.0901 41C11.0001 41 9.96006 41.461 9.19006 42.281C8.43006 43.102 8 44.215 8 45.375C8 46.535 8.43006 47.648 9.19006 48.469C9.96006 49.289 11.0001 49.75 12.0901 49.75H28.4701C29.5601 49.75 30.6 49.289 31.37 48.469C32.13 47.648 32.5701 46.535 32.5701 45.375C32.5701 44.215 32.13 43.102 31.37 42.281C30.6 41.461 29.5601 41 28.4701 41H12.0901Z" fill="url(#paint5_linear_19_2)"/>
<path d="M123.43 28H66.1C65.01 28 63.9701 28.461 63.2001 29.281C62.4301 30.102 62 31.215 62 32.375C62 33.535 62.4301 34.648 63.2001 35.469C63.9701 36.289 65.01 36.75 66.1 36.75H123.43C124.51 36.75 125.55 36.289 126.32 35.469C127.09 34.648 127.52 33.535 127.52 32.375C127.52 31.215 127.09 30.102 126.32 29.281C125.55 28.461 124.51 28 123.43 28Z" fill="url(#paint6_linear_19_2)"/>
<path d="M91.6599 13H67.09C66.01 13 64.97 13.461 64.2 14.281C63.43 15.102 63 16.215 63 17.375C63 18.535 63.43 19.648 64.2 20.469C64.97 21.289 66.01 21.75 67.09 21.75H91.6599C92.7499 21.75 93.7899 21.289 94.5599 20.469C95.3299 19.648 95.76 18.535 95.76 17.375C95.76 16.215 95.3299 15.102 94.5599 14.281C93.7899 13.461 92.7499 13 91.6599 13Z" fill="url(#paint7_linear_19_2)"/>
<path d="M51.29 41H43.1C42.01 41 40.9701 41.461 40.2001 42.281C39.4301 43.102 39 44.215 39 45.375C39 46.535 39.4301 47.648 40.2001 48.469C40.9701 49.289 42.01 49.75 43.1 49.75H51.29C52.37 49.75 53.4101 49.289 54.1801 48.469C54.9501 47.648 55.38 46.535 55.38 45.375C55.38 44.215 54.9501 43.102 54.1801 42.281C53.4101 41.461 52.37 41 51.29 41Z" fill="url(#paint8_linear_19_2)"/>
<path d="M34.0901 13C33.0001 13 31.9601 13.461 31.1901 14.281C30.4301 15.102 30 16.215 30 17.375C30 18.535 30.4301 19.648 31.1901 20.469C31.9601 21.289 33.0001 21.75 34.0901 21.75H50.4701C51.5601 21.75 52.6 21.289 53.37 20.469C54.13 19.648 54.5701 18.535 54.5701 17.375C54.5701 16.215 54.13 15.102 53.37 14.281C52.6 13.461 51.5601 13 50.4701 13H34.0901Z" fill="url(#paint9_linear_19_2)"/>
<path d="M86.4301 0H29.1C28.01 0 26.9701 0.461006 26.2001 1.28101C25.4301 2.10201 25 3.215 25 4.375C25 5.535 25.4301 6.64799 26.2001 7.46899C26.9701 8.28899 28.01 8.75 29.1 8.75H86.4301C87.5101 8.75 88.5501 8.28899 89.3201 7.46899C90.0901 6.64799 90.52 5.535 90.52 4.375C90.52 3.215 90.0901 2.10201 89.3201 1.28101C88.5501 0.461006 87.5101 0 86.4301 0Z" fill="url(#paint10_linear_19_2)"/>
<path d="M53.6599 28H29.09C28.01 28 26.97 28.461 26.2 29.281C25.43 30.102 25 31.215 25 32.375C25 33.535 25.43 34.648 26.2 35.469C26.97 36.289 28.01 36.75 29.09 36.75H53.6599C54.7499 36.75 55.7899 36.289 56.5599 35.469C57.3299 34.648 57.76 33.535 57.76 32.375C57.76 31.215 57.3299 30.102 56.5599 29.281C55.7899 28.461 54.7499 28 53.6599 28Z" fill="url(#paint11_linear_19_2)"/>
<path d="M16.29 28H8.09998C7.00998 28 5.97007 28.461 5.20007 29.281C4.43007 30.102 4 31.215 4 32.375C4 33.535 4.43007 34.648 5.20007 35.469C5.97007 36.289 7.00998 36.75 8.09998 36.75H16.29C17.37 36.75 18.4101 36.289 19.1801 35.469C19.9501 34.648 20.38 33.535 20.38 32.375C20.38 31.215 19.9501 30.102 19.1801 29.281C18.4101 28.461 17.37 28 16.29 28Z" fill="url(#paint12_linear_19_2)"/>
<path d="M99.5701 41C98.4801 41 97.44 41.461 96.67 42.281C95.91 43.102 95.48 44.215 95.48 45.375C95.48 46.535 95.91 47.648 96.67 48.469C97.44 49.289 98.4801 49.75 99.5701 49.75H115.95C117.04 49.75 118.08 49.289 118.85 48.469C119.61 47.648 120.05 46.535 120.05 45.375C120.05 44.215 119.61 43.102 118.85 42.281C118.08 41.461 117.04 41 115.95 41H99.5701Z" fill="url(#paint13_linear_19_2)"/>
<path d="M136.43 54.125H79.1C78.01 54.125 76.9701 54.586 76.2001 55.406C75.4301 56.227 75 57.34 75 58.5C75 59.66 75.4301 60.773 76.2001 61.594C76.9701 62.414 78.01 62.875 79.1 62.875H136.43C137.51 62.875 138.55 62.414 139.32 61.594C140.09 60.773 140.52 59.66 140.52 58.5C140.52 57.34 140.09 56.227 139.32 55.406C138.55 54.586 137.51 54.125 136.43 54.125Z" fill="url(#paint14_linear_19_2)"/>
<path d="M128.23 71.625H103.66C102.58 71.625 101.54 72.086 100.77 72.906C99.9998 73.727 99.5698 74.84 99.5698 76C99.5698 77.16 99.9998 78.273 100.77 79.094C101.54 79.914 102.58 80.375 103.66 80.375H128.23C129.32 80.375 130.36 79.914 131.13 79.094C131.9 78.273 132.33 77.16 132.33 76C132.33 74.84 131.9 73.727 131.13 72.906C130.36 72.086 129.32 71.625 128.23 71.625Z" fill="url(#paint15_linear_19_2)"/>
<path d="M87.29 71.625H79.1C78.01 71.625 76.9701 72.086 76.2001 72.906C75.4301 73.727 75 74.84 75 76C75 77.16 75.4301 78.273 76.2001 79.094C76.9701 79.914 78.01 80.375 79.1 80.375H87.29C88.37 80.375 89.4101 79.914 90.1801 79.094C90.9501 78.273 91.38 77.16 91.38 76C91.38 74.84 90.9501 73.727 90.1801 72.906C89.4101 72.086 88.37 71.625 87.29 71.625Z" fill="url(#paint16_linear_19_2)"/>
<defs>
<linearGradient id="paint0_linear_19_2" x1="75.28" y1="41" x2="75.28" y2="49.75" gradientUnits="userSpaceOnUse">
<stop stop-color="#9EA8E1"/>
<stop offset="1" stop-color="#D0D7F1"/>
</linearGradient>
<linearGradient id="paint1_linear_19_2" x1="32.76" y1="71" x2="32.76" y2="79.75" gradientUnits="userSpaceOnUse">
<stop stop-color="#9EA8E1"/>
<stop offset="1" stop-color="#D0D7F1"/>
</linearGradient>
<linearGradient id="paint2_linear_19_2" x1="65.76" y1="89" x2="65.76" y2="97.75" gradientUnits="userSpaceOnUse">
<stop stop-color="#9EA8E1"/>
<stop offset="1" stop-color="#D0D7F1"/>
</linearGradient>
<linearGradient id="paint3_linear_19_2" x1="52.38" y1="54" x2="52.38" y2="62.75" gradientUnits="userSpaceOnUse">
<stop stop-color="#9EA8E1"/>
<stop offset="1" stop-color="#D0D7F1"/>
</linearGradient>
<linearGradient id="paint4_linear_19_2" x1="22.19" y1="54" x2="22.19" y2="62.75" gradientUnits="userSpaceOnUse">
<stop stop-color="#9EA8E1"/>
<stop offset="1" stop-color="#D0D7F1"/>
</linearGradient>
<linearGradient id="paint5_linear_19_2" x1="20.28" y1="41" x2="20.28" y2="49.75" gradientUnits="userSpaceOnUse">
<stop stop-color="#9EA8E1"/>
<stop offset="1" stop-color="#D0D7F1"/>
</linearGradient>
<linearGradient id="paint6_linear_19_2" x1="94.76" y1="28" x2="94.76" y2="36.75" gradientUnits="userSpaceOnUse">
<stop stop-color="#9EA8E1"/>
<stop offset="1" stop-color="#D0D7F1"/>
</linearGradient>
<linearGradient id="paint7_linear_19_2" x1="79.38" y1="13" x2="79.38" y2="21.75" gradientUnits="userSpaceOnUse">
<stop stop-color="#9EA8E1"/>
<stop offset="1" stop-color="#D0D7F1"/>
</linearGradient>
<linearGradient id="paint8_linear_19_2" x1="47.19" y1="41" x2="47.19" y2="49.75" gradientUnits="userSpaceOnUse">
<stop stop-color="#9EA8E1"/>
<stop offset="1" stop-color="#D0D7F1"/>
</linearGradient>
<linearGradient id="paint9_linear_19_2" x1="42.28" y1="13" x2="42.28" y2="21.75" gradientUnits="userSpaceOnUse">
<stop stop-color="#9EA8E1"/>
<stop offset="1" stop-color="#D0D7F1"/>
</linearGradient>
<linearGradient id="paint10_linear_19_2" x1="57.76" y1="0" x2="57.76" y2="8.75" gradientUnits="userSpaceOnUse">
<stop stop-color="#9EA8E1"/>
<stop offset="1" stop-color="#D0D7F1"/>
</linearGradient>
<linearGradient id="paint11_linear_19_2" x1="41.38" y1="28" x2="41.38" y2="36.75" gradientUnits="userSpaceOnUse">
<stop stop-color="#9EA8E1"/>
<stop offset="1" stop-color="#D0D7F1"/>
</linearGradient>
<linearGradient id="paint12_linear_19_2" x1="12.19" y1="28" x2="12.19" y2="36.75" gradientUnits="userSpaceOnUse">
<stop stop-color="#9EA8E1"/>
<stop offset="1" stop-color="#D0D7F1"/>
</linearGradient>
<linearGradient id="paint13_linear_19_2" x1="107.76" y1="41" x2="107.76" y2="49.75" gradientUnits="userSpaceOnUse">
<stop stop-color="#9EA8E1"/>
<stop offset="1" stop-color="#D0D7F1"/>
</linearGradient>
<linearGradient id="paint14_linear_19_2" x1="107.76" y1="54.125" x2="107.76" y2="62.875" gradientUnits="userSpaceOnUse">
<stop stop-color="#9EA8E1"/>
<stop offset="1" stop-color="#D0D7F1"/>
</linearGradient>
<linearGradient id="paint15_linear_19_2" x1="115.95" y1="71.625" x2="115.95" y2="80.375" gradientUnits="userSpaceOnUse">
<stop stop-color="#9EA8E1"/>
<stop offset="1" stop-color="#D0D7F1"/>
</linearGradient>
<linearGradient id="paint16_linear_19_2" x1="83.19" y1="71.625" x2="83.19" y2="80.375" gradientUnits="userSpaceOnUse">
<stop stop-color="#9EA8E1"/>
<stop offset="1" stop-color="#D0D7F1"/>
</linearGradient>
</defs>
</svg>
