<svg width="97" height="97" viewBox="0 0 97 97" fill="none" xmlns="http://www.w3.org/2000/svg">
<path d="M90.408 54.358C87.098 55.237 83.687 55.682 80.261 55.681C69.831 55.681 60.037 51.627 52.679 44.269C47.848 39.41 44.375 33.37 42.606 26.75C40.836 20.13 40.833 13.162 42.596 6.54099C42.816 5.71299 42.815 4.84202 42.592 4.01402C42.369 3.18702 41.933 2.43301 41.327 1.82801C40.7201 1.22301 39.966 0.787019 39.138 0.566019C38.311 0.345019 37.439 0.345019 36.612 0.566019C28.322 2.77502 20.759 7.125 14.682 13.18C-4.36097 32.222 -4.36097 63.219 14.682 82.272C19.208 86.823 24.592 90.432 30.523 92.889C36.453 95.346 42.811 96.602 49.23 96.586C55.648 96.604 62.005 95.348 67.934 92.892C73.862 90.436 79.245 86.828 83.769 82.277C89.828 76.198 94.18 68.631 96.388 60.337C96.607 59.51 96.605 58.639 96.382 57.812C96.16 56.986 95.724 56.232 95.119 55.627C94.513 55.021 93.76 54.586 92.933 54.363C92.106 54.14 91.236 54.138 90.408 54.358ZM76.8661 75.369C73.246 79.009 68.94 81.895 64.197 83.86C59.454 85.824 54.369 86.829 49.235 86.815C44.1 86.828 39.013 85.822 34.268 83.857C29.524 81.891 25.216 79.005 21.595 75.364C6.36202 60.127 6.36202 35.329 21.595 20.092C24.538 17.152 27.936 14.706 31.658 12.848C31.113 19.878 32.093 26.943 34.529 33.56C36.966 40.176 40.802 46.189 45.777 51.187C50.763 56.177 56.774 60.024 63.394 62.462C70.014 64.901 77.0841 65.872 84.1161 65.31C82.247 69.026 79.8 72.421 76.8661 75.369Z" fill="url(#paint0_linear_3_45)"/>
<defs>
<linearGradient id="paint0_linear_3_45" x1="48.475" y1="0.400019" x2="48.475" y2="96.586" gradientUnits="userSpaceOnUse">
<stop stop-color="#FAFAFC"/>
<stop offset="1" stop-color="#CBD2E7"/>
</linearGradient>
</defs>
</svg>
