<svg width="116" height="124" viewBox="0 0 116 124" fill="none" xmlns="http://www.w3.org/2000/svg">
<path d="M95.018 23.13C91.717 16.145 86.45 10.276 79.862 6.24198C73.274 2.20798 65.652 0.184002 57.93 0.418002C37.6 0.418002 20.754 14.089 18.505 31.641C13.706 32.268 9.28097 34.566 6.00697 38.13C2.73297 41.695 0.817976 46.298 0.599976 51.133C0.907976 56.683 3.39998 61.886 7.53098 65.604C11.663 69.323 17.098 71.255 22.65 70.978H40.29C41.46 70.978 42.581 70.514 43.408 69.687C44.235 68.859 44.7 67.738 44.7 66.568C44.7 65.399 44.235 64.277 43.408 63.45C42.581 62.623 41.46 62.158 40.29 62.158H22.65C19.441 62.417 16.258 61.407 13.785 59.346C11.311 57.285 9.74397 54.336 9.41997 51.133C9.74397 47.93 11.311 44.981 13.785 42.92C16.258 40.859 19.441 39.8489 22.65 40.1079C23.82 40.1079 24.941 39.644 25.768 38.817C26.595 37.989 27.06 36.868 27.06 35.698C27.06 21.101 40.908 9.23795 57.93 9.23795C64.251 9.01695 70.488 10.742 75.796 14.181C81.104 17.62 85.228 22.606 87.609 28.466C87.878 29.254 88.365 29.949 89.013 30.472C89.66 30.995 90.443 31.324 91.27 31.42C95.226 31.692 98.948 33.3949 101.74 36.2119C104.532 39.0279 106.203 42.765 106.44 46.723C106.123 51.1 104.093 55.175 100.791 58.065C97.489 60.954 93.18 62.425 88.8 62.158H57.93C56.76 62.158 55.639 62.623 54.812 63.45C53.985 64.277 53.52 65.399 53.52 66.568C53.52 67.738 53.985 68.859 54.812 69.687C55.639 70.514 56.76 70.978 57.93 70.978H88.8C95.521 71.253 102.077 68.8559 107.036 64.3109C111.994 59.7659 114.951 53.442 115.26 46.723C115.068 41.076 112.958 35.663 109.279 31.375C105.6 27.086 100.57 24.178 95.018 23.13Z" fill="url(#paint0_linear_3_52)"/>
<path d="M25.517 89.676C24.718 88.993 23.702 88.618 22.65 88.618C21.599 88.618 20.583 88.993 19.784 89.676C10.611 97.438 6.81904 109.698 11.184 117.415C12.489 119.703 14.479 121.523 16.873 122.619C18.683 123.463 20.654 123.9 22.65 123.9C24.647 123.9 26.618 123.463 28.428 122.619C30.822 121.523 32.812 119.703 34.116 117.415C38.482 109.698 34.69 97.438 25.517 89.676ZM26.443 113.093C26.005 113.758 25.396 114.291 24.679 114.637C24.048 114.921 23.364 115.067 22.673 115.067C21.981 115.067 21.297 114.921 20.666 114.637C19.952 114.304 19.354 113.767 18.946 113.093C17.403 110.668 18.24 104.538 22.65 99.29C24.433 101.059 25.722 103.264 26.387 105.686C27.052 108.108 27.072 110.662 26.443 113.093Z" fill="url(#paint1_linear_3_52)"/>
<path d="M96.076 89.676C95.278 88.993 94.261 88.618 93.21 88.618C92.159 88.618 91.142 88.993 90.343 89.676C81.171 97.526 77.3781 109.698 81.5231 117.415C82.8281 119.703 84.8181 121.523 87.2121 122.619C89.0211 123.463 90.9931 123.9 92.9891 123.9C94.9851 123.9 96.957 123.463 98.766 122.619C101.161 121.523 103.151 119.703 104.455 117.415C109.042 109.698 105.249 97.438 96.076 89.676ZM97.0021 113.093C96.5641 113.758 95.9551 114.291 95.2381 114.637C94.6081 114.921 93.9241 115.067 93.2321 115.067C92.5401 115.067 91.8561 114.921 91.2251 114.637C90.5121 114.304 89.9131 113.767 89.5051 113.093C88.0061 110.492 88.9321 104.538 93.2541 99.29C95.0291 101.064 96.3091 103.271 96.9671 105.693C97.6241 108.114 97.6371 110.666 97.0021 113.093Z" fill="url(#paint2_linear_3_52)"/>
<path d="M60.797 80.856C59.998 80.173 58.981 79.797 57.93 79.797C56.879 79.797 55.863 80.173 55.064 80.856C45.891 88.706 42.098 100.877 46.464 108.595C47.769 110.883 49.759 112.703 52.153 113.799C53.962 114.642 55.934 115.079 57.93 115.079C59.926 115.079 61.898 114.642 63.707 113.799C66.102 112.703 68.092 110.883 69.396 108.595C73.762 100.877 69.97 88.618 60.797 80.856ZM61.723 104.273C61.285 104.937 60.675 105.471 59.959 105.817C59.328 106.1 58.644 106.247 57.952 106.247C57.261 106.247 56.577 106.1 55.946 105.817C55.232 105.484 54.633 104.947 54.226 104.273C52.726 101.671 53.653 95.718 57.974 90.47C59.749 92.243 61.029 94.451 61.687 96.872C62.345 99.294 62.357 101.845 61.723 104.273Z" fill="url(#paint3_linear_3_52)"/>
<defs>
<linearGradient id="paint0_linear_3_52" x1="57.93" y1="0.400002" x2="57.93" y2="71.004" gradientUnits="userSpaceOnUse">
<stop stop-color="#9EA8E1"/>
<stop offset="1" stop-color="#D0D7F1"/>
</linearGradient>
<linearGradient id="paint1_linear_3_52" x1="22.65" y1="88.618" x2="22.65" y2="123.9" gradientUnits="userSpaceOnUse">
<stop stop-color="#7CB1F8"/>
<stop offset="1" stop-color="#3495E3"/>
</linearGradient>
<linearGradient id="paint2_linear_3_52" x1="93.1281" y1="88.618" x2="93.1281" y2="123.9" gradientUnits="userSpaceOnUse">
<stop stop-color="#7CB1F8"/>
<stop offset="1" stop-color="#3495E3"/>
</linearGradient>
<linearGradient id="paint3_linear_3_52" x1="57.93" y1="79.797" x2="57.93" y2="115.079" gradientUnits="userSpaceOnUse">
<stop stop-color="#7CB1F8"/>
<stop offset="1" stop-color="#3495E3"/>
</linearGradient>
</defs>
</svg>
