<svg width="116" height="108" viewBox="0 0 116 108" fill="none" xmlns="http://www.w3.org/2000/svg">
<path d="M108.73 54.679L114.06 49.398C114.83 48.627 115.26 47.582 115.26 46.492C115.26 45.402 114.83 44.356 114.06 43.585C113.29 42.815 112.24 42.382 111.15 42.382C110.06 42.382 109.01 42.815 108.24 43.585L101.28 50.585H94.78L102.14 40.761C102.47 40.331 102.7 39.841 102.83 39.321C102.97 38.8 103 38.258 102.92 37.726C102.85 37.194 102.67 36.682 102.39 36.219C102.12 35.757 101.76 35.352 101.33 35.03C100.89 34.707 100.41 34.473 99.88 34.339C99.36 34.206 98.82 34.176 98.29 34.252C97.76 34.328 97.25 34.508 96.78 34.782C96.32 35.056 95.92 35.419 95.59 35.849L84.54 50.585H74.3101C73.8901 50.6 73.47 50.683 73.08 50.831C72.21 50.563 71.27 50.595 70.42 50.921C69.56 51.248 68.84 51.85 68.37 52.632L62.5601 62.62H53.3101L48.5601 54.433L52.37 46.246H66.12C66.61 46.23 67.09 46.133 67.55 45.96H67.84C68.26 45.753 68.64 45.492 68.99 45.182C69.17 45.01 69.34 44.818 69.48 44.609L76.11 33.966L93.59 33.147C94.64 33.094 95.63 32.64 96.35 31.878C97.08 31.116 97.48 30.104 97.48 29.053C97.48 28.498 97.37 27.949 97.15 27.438C96.93 26.928 96.61 26.467 96.21 26.084C95.8 25.701 95.3301 25.404 94.8101 25.211C94.2901 25.017 93.7301 24.932 93.1801 24.96L81.35 25.492L84.66 20.129L94.28 18.328C95.37 18.127 96.33 17.503 96.96 16.594C97.58 15.684 97.82 14.563 97.62 13.477C97.42 12.392 96.8 11.43 95.89 10.805C94.98 10.179 93.86 9.93998 92.77 10.141L85.4 11.533L84.01 4.20598C83.81 3.11998 83.18 2.15801 82.27 1.53301C81.37 0.907011 80.24 0.66801 79.16 0.86901C78.07 1.07001 77.11 1.69399 76.49 2.60399C75.86 3.513 75.6199 4.63396 75.8199 5.71996L77.66 15.545L74.3101 21.235L70.21 9.40398C70.07 8.86198 69.82 8.35497 69.47 7.91497C69.12 7.47497 68.6899 7.11096 68.1899 6.84496C67.6999 6.57996 67.16 6.41898 66.6 6.37298C66.04 6.32598 65.4799 6.395 64.9399 6.575C64.4099 6.755 63.92 7.04202 63.51 7.41802C63.09 7.79502 62.76 8.25297 62.53 8.76397C62.3 9.27497 62.17 9.82797 62.16 10.389C62.16 10.95 62.26 11.506 62.48 12.024L68.78 30.404L63.83 38.059H52C52 38.059 52 37.814 52 37.732L46.27 29.258L52.2 11.82C52.52 10.772 52.41 9.63997 51.9 8.67296C51.39 7.70496 50.51 6.98198 49.46 6.66198C48.41 6.34098 47.2801 6.45002 46.3101 6.96502C45.3501 7.47902 44.62 8.35698 44.3 9.40398L40.21 20.989L36.5699 15.627L38.41 5.92498C38.51 5.38698 38.5 4.83502 38.39 4.30102C38.27 3.76602 38.05 3.25897 37.74 2.80797C37.43 2.35797 37.04 1.97298 36.58 1.67498C36.12 1.37798 35.6099 1.17297 35.0699 1.07397C34.5299 0.974966 33.9799 0.981999 33.45 1.096C32.91 1.21 32.41 1.42799 31.95 1.73699C31.5 2.04699 31.1199 2.44299 30.8199 2.90099C30.5199 3.35999 30.32 3.87296 30.22 4.40996L29.28 11.533L21.75 10.141C21.21 10.039 20.66 10.044 20.12 10.155C19.59 10.266 19.08 10.482 18.62 10.79C17.71 11.412 17.08 12.371 16.88 13.457C16.67 14.543 16.9 15.666 17.52 16.579C18.15 17.493 19.1099 18.122 20.1899 18.328L29.9301 20.17L33.58 25.533L21.3 24.96C20.21 24.96 19.17 25.391 18.4 26.159C17.63 26.926 17.2 27.968 17.2 29.053C17.2 30.139 17.63 31.18 18.4 31.948C19.17 32.716 20.21 33.147 21.3 33.147L39.72 34.007L45.08 42.153L41.3101 50.34H31.33L20.27 35.603C19.62 34.734 18.65 34.16 17.58 34.007C16.5 33.853 15.41 34.133 14.54 34.784C13.67 35.436 13.1 36.405 12.95 37.48C12.79 38.555 13.07 39.647 13.72 40.515L21.09 50.585H14.58L7.62 43.585C6.85 42.815 5.80997 42.382 4.71997 42.382C3.62997 42.382 2.58 42.815 1.81 43.585C1.04 44.356 0.609985 45.402 0.609985 46.492C0.609985 47.582 1.04 48.627 1.81 49.398L7.13 54.679L1.81 59.96C1.43 60.34 1.11997 60.793 0.909973 61.292C0.709973 61.791 0.599976 62.326 0.599976 62.866C0.599976 63.406 0.709973 63.941 0.909973 64.44C1.11997 64.939 1.43 65.392 1.81 65.772C2.19 66.156 2.64001 66.461 3.14001 66.668C3.64001 66.876 4.17997 66.983 4.71997 66.983C5.25997 66.983 5.78998 66.876 6.28998 66.668C6.78998 66.461 7.24 66.156 7.62 65.772L14.58 58.772H21.09L13.72 68.597C13.07 69.466 12.79 70.557 12.95 71.632C13.1 72.707 13.67 73.677 14.54 74.328C15.25 74.859 16.11 75.147 17 75.147C17.63 75.147 18.26 74.999 18.83 74.715C19.4 74.43 19.89 74.018 20.27 73.509L31.33 58.772H41.5601L45.86 66.182L40.45 74.123L22.11 74.901C21.03 74.901 19.99 75.332 19.22 76.1C18.45 76.868 18.02 77.909 18.02 78.995C18.02 80.08 18.45 81.121 19.22 81.889C19.99 82.657 21.03 83.088 22.11 83.088L34.4 82.515L30.75 87.878L21.05 89.72C19.96 89.823 18.96 90.353 18.27 91.194C17.58 92.034 17.24 93.116 17.35 94.202C17.45 95.288 17.9799 96.288 18.8199 96.983C19.6599 97.678 20.74 98.01 21.83 97.907C22.07 97.947 22.3199 97.947 22.5699 97.907L29.9301 96.515L31.33 103.883C31.51 104.829 32.02 105.681 32.77 106.287C33.52 106.894 34.46 107.217 35.42 107.199H36.2C36.7299 107.101 37.2301 106.899 37.6801 106.605C38.1401 106.31 38.52 105.93 38.83 105.485C39.13 105.04 39.35 104.539 39.46 104.011C39.57 103.484 39.57 102.939 39.47 102.41L37.59 92.667L41.5601 87.182L45.65 98.807C45.93 99.62 46.45 100.327 47.15 100.826C47.85 101.326 48.68 101.593 49.54 101.591C49.99 101.581 50.43 101.498 50.85 101.345C51.88 100.992 52.72 100.246 53.2 99.271C53.67 98.296 53.74 97.173 53.39 96.147L47.41 78.749L52.65 70.808H64.16L69.5601 78.749L63.62 96.188C63.28 97.203 63.3499 98.312 63.8199 99.276C64.2899 100.241 65.11 100.983 66.12 101.345C66.54 101.498 66.9801 101.581 67.4301 101.591C68.3201 101.638 69.21 101.391 69.95 100.888C70.68 100.385 71.24 99.655 71.52 98.807L75.62 87.182L79.26 92.544L77.42 102.287C77.32 102.817 77.3201 103.361 77.4301 103.889C77.5401 104.416 77.7601 104.917 78.0601 105.362C78.3701 105.807 78.75 106.188 79.21 106.482C79.66 106.776 80.1599 106.978 80.6899 107.076H81.47C82.43 107.094 83.37 106.771 84.12 106.164C84.87 105.558 85.3801 104.707 85.5601 103.761L86.96 96.392L94.28 97.784C94.54 97.822 94.8001 97.822 95.0601 97.784C96.1501 97.887 97.2299 97.555 98.0699 96.86C98.9099 96.165 99.44 95.165 99.54 94.079C99.65 92.994 99.32 91.911 98.62 91.071C97.93 90.23 96.93 89.7 95.84 89.597L86.14 87.755L82.45 82.392L94.73 82.965H94.78C95.86 82.965 96.9 82.534 97.67 81.766C98.44 80.999 98.87 79.957 98.87 78.872C98.87 77.786 98.44 76.745 97.67 75.977C96.9 75.21 95.86 74.778 94.78 74.778L76.4 73.919L70.62 65.486C70.62 65.486 70.62 65.486 70.42 65.24L74.3101 58.772H84.54L95.59 73.509C95.98 74.018 96.47 74.43 97.04 74.715C97.61 74.999 98.23 75.147 98.87 75.147C99.75 75.147 100.62 74.859 101.33 74.328C101.76 74.005 102.12 73.601 102.39 73.139C102.67 72.676 102.85 72.164 102.92 71.632C103 71.1 102.97 70.558 102.83 70.037C102.7 69.516 102.47 69.027 102.14 68.597L94.78 58.772H101.28L108.24 65.772C108.62 66.156 109.08 66.461 109.58 66.668C110.07 66.876 110.61 66.983 111.15 66.983C111.69 66.983 112.23 66.876 112.72 66.668C113.22 66.461 113.68 66.156 114.06 65.772C114.44 65.392 114.74 64.939 114.95 64.44C115.16 63.941 115.27 63.406 115.27 62.866C115.27 62.326 115.16 61.791 114.95 61.292C114.74 60.793 114.44 60.34 114.06 59.96L108.73 54.679Z" fill="url(#paint0_linear_3_55)"/>
<defs>
<linearGradient id="paint0_linear_3_55" x1="57.93" y1="0.80001" x2="57.93" y2="107.2" gradientUnits="userSpaceOnUse">
<stop stop-color="#D5DBF3"/>
<stop offset="1" stop-color="#A0CFF6"/>
</linearGradient>
</defs>
</svg>
