<svg width="123" height="123" viewBox="0 0 123 123" fill="none" xmlns="http://www.w3.org/2000/svg">
<path d="M61.65 17.9C62.81 17.9 63.923 17.439 64.743 16.618C65.564 15.798 66.025 14.685 66.025 13.525V4.77499C66.025 3.61499 65.564 2.502 64.743 1.681C63.923 0.861 62.81 0.399994 61.65 0.399994C60.49 0.399994 59.377 0.861 58.556 1.681C57.736 2.502 57.275 3.61499 57.275 4.77499V13.525C57.275 14.685 57.736 15.798 58.556 16.618C59.377 17.439 60.49 17.9 61.65 17.9Z" fill="url(#paint0_linear_3_46)"/>
<path d="M61.65 105.4C60.49 105.4 59.377 105.861 58.556 106.681C57.736 107.502 57.275 108.615 57.275 109.775V118.525C57.275 119.685 57.736 120.798 58.556 121.618C59.377 122.439 60.49 122.9 61.65 122.9C62.81 122.9 63.923 122.439 64.743 121.618C65.564 120.798 66.025 119.685 66.025 118.525V109.775C66.025 108.615 65.564 107.502 64.743 106.681C63.923 105.861 62.81 105.4 61.65 105.4Z" fill="url(#paint1_linear_3_46)"/>
<path d="M13.525 57.275H4.77502C3.61502 57.275 2.50203 57.736 1.68103 58.556C0.86103 59.377 0.400024 60.49 0.400024 61.65C0.400024 62.81 0.86103 63.923 1.68103 64.743C2.50203 65.564 3.61502 66.025 4.77502 66.025H13.525C14.685 66.025 15.798 65.564 16.618 64.743C17.439 63.923 17.9 62.81 17.9 61.65C17.9 60.49 17.439 59.377 16.618 58.556C15.798 57.736 14.685 57.275 13.525 57.275Z" fill="url(#paint2_linear_3_46)"/>
<path d="M118.525 57.275H109.775C108.615 57.275 107.502 57.736 106.681 58.556C105.861 59.377 105.4 60.49 105.4 61.65C105.4 62.81 105.861 63.923 106.681 64.743C107.502 65.564 108.615 66.025 109.775 66.025H118.525C119.685 66.025 120.798 65.564 121.618 64.743C122.439 63.923 122.9 62.81 122.9 61.65C122.9 60.49 122.439 59.377 121.618 58.556C120.798 57.736 119.685 57.275 118.525 57.275Z" fill="url(#paint3_linear_3_46)"/>
<path d="M91.356 80.856C90.914 80.488 90.4041 80.21 89.8541 80.039C89.3051 79.869 88.7271 79.808 88.1541 79.861C87.5811 79.913 87.0241 80.079 86.5151 80.347C86.0061 80.616 85.5551 80.982 85.1871 81.425C84.3261 82.454 83.4051 83.433 82.4311 84.356C77.0931 89.306 70.1661 92.192 62.8921 92.498C55.6191 92.803 48.4741 90.507 42.7401 86.022C37.0061 81.537 33.0571 75.156 31.6011 68.023C30.1461 60.89 31.2791 53.471 34.7971 47.098C38.3161 40.725 43.9901 35.813 50.8021 33.245C57.6131 30.676 65.117 30.618 71.968 33.08C78.819 35.543 84.5681 40.366 88.1851 46.684C91.8031 53.002 93.0511 60.401 91.7061 67.556C91.4861 68.716 91.7351 69.917 92.4001 70.893C93.0641 71.87 94.0891 72.542 95.2501 72.762C96.4101 72.983 97.6111 72.733 98.5871 72.069C99.5631 71.404 100.236 70.379 100.456 69.219C102.199 60.021 100.608 50.504 95.9691 42.374C91.3301 34.243 83.9461 28.031 75.1421 24.852C66.3371 21.673 56.6881 21.735 47.9251 25.026C39.1621 28.318 31.8581 34.623 27.3231 42.812C22.7891 51.002 21.3201 60.538 23.1801 69.713C25.0401 78.887 30.1081 87.098 37.4751 92.874C44.8411 98.649 54.025 101.612 63.378 101.229C72.731 100.847 81.6421 97.145 88.5121 90.787C89.7861 89.609 90.9841 88.353 92.1001 87.025C92.4581 86.572 92.7241 86.053 92.8801 85.497C93.0371 84.941 93.0821 84.359 93.0131 83.786C92.9441 83.212 92.7621 82.658 92.4781 82.155C92.1931 81.652 91.812 81.211 91.356 80.856Z" fill="url(#paint4_linear_3_46)"/>
<path d="M95.687 31.987C96.263 31.991 96.834 31.88 97.367 31.663C97.9 31.445 98.385 31.124 98.794 30.719L104.962 24.506C105.42 24.114 105.792 23.631 106.055 23.088C106.318 22.546 106.465 21.954 106.488 21.352C106.512 20.749 106.41 20.149 106.19 19.587C105.97 19.026 105.637 18.516 105.21 18.09C104.784 17.663 104.274 17.33 103.713 17.11C103.151 16.89 102.55 16.788 101.948 16.811C101.345 16.835 100.754 16.982 100.211 17.245C99.669 17.507 99.186 17.879 98.794 18.337L92.581 24.506C92.171 24.913 91.846 25.397 91.624 25.93C91.401 26.463 91.287 27.035 91.287 27.612C91.287 28.19 91.401 28.762 91.624 29.295C91.846 29.828 92.171 30.312 92.581 30.719C92.99 31.124 93.475 31.445 94.008 31.663C94.541 31.88 95.112 31.991 95.687 31.987Z" fill="url(#paint5_linear_3_46)"/>
<path d="M24.5059 92.581L18.3379 98.794C17.5229 99.613 17.0649 100.722 17.0649 101.878C17.0649 103.034 17.5229 104.143 18.3379 104.962C18.7459 105.368 19.2309 105.689 19.7639 105.906C20.2969 106.124 20.8679 106.234 21.4439 106.231C22.5919 106.226 23.6919 105.771 24.5059 104.962L30.7189 98.794C31.5429 97.97 32.0059 96.852 32.0059 95.687C32.0059 94.522 31.5429 93.405 30.7189 92.581C29.8949 91.757 28.7779 91.294 27.6129 91.294C26.4479 91.294 25.3299 91.757 24.5059 92.581Z" fill="url(#paint6_linear_3_46)"/>
<path d="M24.506 30.718C24.915 31.123 25.4 31.444 25.933 31.662C26.466 31.88 27.037 31.99 27.613 31.987C28.188 31.99 28.759 31.88 29.292 31.662C29.825 31.444 30.31 31.123 30.719 30.718C31.129 30.311 31.454 29.827 31.677 29.294C31.899 28.761 32.013 28.189 32.013 27.612C32.013 27.034 31.899 26.462 31.677 25.929C31.454 25.396 31.129 24.912 30.719 24.505L24.506 18.337C23.669 17.62 22.593 17.245 21.492 17.288C20.391 17.33 19.346 17.787 18.567 18.566C17.788 19.345 17.331 20.39 17.289 21.491C17.246 22.592 17.621 23.668 18.338 24.505L24.506 30.718Z" fill="url(#paint7_linear_3_46)"/>
<path d="M98.7939 92.581C97.9699 91.757 96.852 91.294 95.687 91.294C94.522 91.294 93.4049 91.757 92.5809 92.581C91.7569 93.405 91.2939 94.522 91.2939 95.687C91.2939 96.852 91.7569 97.97 92.5809 98.794L98.7939 104.962C99.6079 105.771 100.708 106.226 101.856 106.231C102.432 106.234 103.003 106.124 103.536 105.906C104.069 105.689 104.554 105.368 104.962 104.962C105.777 104.143 106.235 103.034 106.235 101.878C106.235 100.722 105.777 99.613 104.962 98.794L98.7939 92.581Z" fill="url(#paint8_linear_3_46)"/>
<defs>
<linearGradient id="paint0_linear_3_46" x1="61.65" y1="0.399994" x2="61.65" y2="17.9" gradientUnits="userSpaceOnUse">
<stop stop-color="#FAC86A"/>
<stop offset="1" stop-color="#F1674C"/>
</linearGradient>
<linearGradient id="paint1_linear_3_46" x1="61.65" y1="105.4" x2="61.65" y2="122.9" gradientUnits="userSpaceOnUse">
<stop stop-color="#FAC86A"/>
<stop offset="1" stop-color="#F1674C"/>
</linearGradient>
<linearGradient id="paint2_linear_3_46" x1="9.15002" y1="57.275" x2="9.15002" y2="66.025" gradientUnits="userSpaceOnUse">
<stop stop-color="#FAC86A"/>
<stop offset="1" stop-color="#F1674C"/>
</linearGradient>
<linearGradient id="paint3_linear_3_46" x1="114.15" y1="57.275" x2="114.15" y2="66.025" gradientUnits="userSpaceOnUse">
<stop stop-color="#FAC86A"/>
<stop offset="1" stop-color="#F1674C"/>
</linearGradient>
<linearGradient id="paint4_linear_3_46" x1="61.7701" y1="22.512" x2="61.7701" y2="101.262" gradientUnits="userSpaceOnUse">
<stop stop-color="#FAC86A"/>
<stop offset="1" stop-color="#F1674C"/>
</linearGradient>
<linearGradient id="paint5_linear_3_46" x1="98.889" y1="16.808" x2="98.889" y2="31.987" gradientUnits="userSpaceOnUse">
<stop stop-color="#FAC86A"/>
<stop offset="1" stop-color="#F1674C"/>
</linearGradient>
<linearGradient id="paint6_linear_3_46" x1="24.5349" y1="91.294" x2="24.5349" y2="106.231" gradientUnits="userSpaceOnUse">
<stop stop-color="#FAC86A"/>
<stop offset="1" stop-color="#F1674C"/>
</linearGradient>
<linearGradient id="paint7_linear_3_46" x1="24.649" y1="17.285" x2="24.649" y2="31.987" gradientUnits="userSpaceOnUse">
<stop stop-color="#FAC86A"/>
<stop offset="1" stop-color="#F1674C"/>
</linearGradient>
<linearGradient id="paint8_linear_3_46" x1="98.7639" y1="91.294" x2="98.7639" y2="106.231" gradientUnits="userSpaceOnUse">
<stop stop-color="#FAC86A"/>
<stop offset="1" stop-color="#F1674C"/>
</linearGradient>
</defs>
</svg>
