<svg width="115" height="123" viewBox="0 0 115 123" fill="none" xmlns="http://www.w3.org/2000/svg">
<path d="M94.269 22.949C90.994 16.02 85.768 10.198 79.233 6.196C72.697 2.193 65.135 0.185045 57.475 0.418045C37.306 0.418045 20.594 13.981 18.363 31.393C13.602 32.015 9.21199 34.295 5.96399 37.831C2.71599 41.367 0.816976 45.934 0.599976 50.731C0.904976 56.236 3.37801 61.398 7.47601 65.087C11.575 68.776 16.968 70.692 22.475 70.418H30.656L26.85 87.218C26.711 87.864 26.72 88.533 26.877 89.175C27.034 89.817 27.334 90.416 27.755 90.925C28.176 91.434 28.707 91.842 29.308 92.117C29.909 92.391 30.564 92.527 31.225 92.512H39.188L35.6 117.931C35.462 118.902 35.654 119.892 36.146 120.741C36.638 121.59 37.401 122.249 38.313 122.612C38.842 122.821 39.406 122.925 39.975 122.918C40.68 122.917 41.375 122.745 42 122.418C42.624 122.09 43.161 121.616 43.563 121.037L74.188 77.287C74.619 76.649 74.875 75.909 74.929 75.14C74.982 74.372 74.832 73.603 74.494 72.912C74.143 72.174 73.592 71.549 72.903 71.108C72.215 70.668 71.417 70.429 70.6 70.418H59.138L65.831 49.899C66.042 49.257 66.1 48.574 66.002 47.905C65.904 47.236 65.652 46.599 65.266 46.043C64.88 45.488 64.371 45.03 63.778 44.704C63.186 44.379 62.526 44.195 61.85 44.168H39.975C38.964 44.143 37.975 44.47 37.177 45.092C36.38 45.714 35.822 46.594 35.6 47.581L32.581 61.668H22.475C19.291 61.925 16.134 60.923 13.68 58.878C11.226 56.834 9.67198 53.908 9.34998 50.731C9.67198 47.553 11.226 44.628 13.68 42.583C16.134 40.538 19.291 39.536 22.475 39.793C23.635 39.793 24.748 39.332 25.569 38.512C26.389 37.691 26.85 36.578 26.85 35.418C26.85 20.937 40.588 9.16805 57.475 9.16805C63.746 8.94804 69.933 10.66 75.199 14.072C80.465 17.483 84.556 22.43 86.919 28.243C87.186 29.025 87.668 29.715 88.311 30.233C88.954 30.752 89.73 31.078 90.55 31.174C94.475 31.444 98.168 33.133 100.937 35.927C103.707 38.721 105.365 42.428 105.6 46.356C105.286 50.697 103.272 54.74 99.996 57.607C96.72 60.474 92.445 61.933 88.1 61.668H83.725C82.565 61.668 81.452 62.129 80.632 62.949C79.811 63.77 79.35 64.883 79.35 66.043C79.35 67.203 79.811 68.316 80.632 69.137C81.452 69.957 82.565 70.418 83.725 70.418H88.1C94.768 70.691 101.272 68.313 106.191 63.804C111.11 59.295 114.043 53.021 114.35 46.356C114.159 40.753 112.067 35.383 108.417 31.129C104.767 26.874 99.777 23.99 94.269 22.949ZM43.475 52.918H55.638L48.944 73.437C48.73 74.093 48.674 74.791 48.782 75.473C48.889 76.155 49.156 76.802 49.562 77.361C49.967 77.92 50.499 78.376 51.114 78.69C51.729 79.004 52.41 79.168 53.1 79.168H62.2L46.888 101.043L48.725 88.531C48.813 87.906 48.764 87.27 48.583 86.666C48.402 86.062 48.092 85.504 47.675 85.031C47.26 84.558 46.749 84.181 46.175 83.924C45.601 83.668 44.979 83.538 44.35 83.543H36.781L43.475 52.918Z" fill="url(#paint0_linear_3_54)"/>
<path fill-rule="evenodd" clip-rule="evenodd" d="M30.656 70.418L26.85 87.218C26.711 87.864 26.721 88.534 26.877 89.176C27.034 89.818 27.334 90.416 27.755 90.925C28.176 91.435 28.707 91.842 29.308 92.117C29.909 92.392 30.565 92.527 31.225 92.512H39.188L35.6 117.931C35.462 118.902 35.654 119.892 36.146 120.741C36.638 121.59 37.401 122.249 38.313 122.612C38.842 122.821 39.406 122.925 39.975 122.918C40.681 122.917 41.375 122.745 42 122.418C42.624 122.09 43.161 121.617 43.563 121.037L74.188 77.287C74.619 76.649 74.875 75.909 74.929 75.141C74.982 74.373 74.832 73.604 74.494 72.912C74.143 72.174 73.592 71.549 72.903 71.109C72.215 70.668 71.417 70.429 70.6 70.418H59.138L65.831 49.9C66.042 49.257 66.1 48.574 66.002 47.905C65.904 47.236 65.652 46.599 65.266 46.044C64.881 45.488 64.371 45.03 63.779 44.705C63.186 44.379 62.526 44.196 61.85 44.168H39.975C38.964 44.144 37.975 44.47 37.178 45.092C36.38 45.714 35.822 46.594 35.6 47.581L30.656 70.418ZM55.638 52.918H43.475L36.781 83.543H44.35C44.979 83.538 45.601 83.668 46.175 83.925C46.749 84.181 47.26 84.559 47.675 85.031C48.092 85.504 48.402 86.062 48.583 86.666C48.764 87.27 48.813 87.906 48.725 88.531L46.888 101.043L62.2 79.168H53.1C52.41 79.168 51.729 79.004 51.114 78.69C50.499 78.376 49.967 77.921 49.562 77.362C49.156 76.803 48.889 76.156 48.782 75.474C48.674 74.791 48.73 74.094 48.944 73.437L55.638 52.918Z" fill="url(#paint1_linear_3_54)"/>
<defs>
<linearGradient id="paint0_linear_3_54" x1="57.475" y1="0.400045" x2="57.475" y2="122.918" gradientUnits="userSpaceOnUse">
<stop stop-color="#9EA8E1"/>
<stop offset="1" stop-color="#D0D7F1"/>
</linearGradient>
<linearGradient id="paint1_linear_3_54" x1="50.846" y1="44.167" x2="50.846" y2="122.919" gradientUnits="userSpaceOnUse">
<stop stop-color="#FFB831"/>
<stop offset="1" stop-color="#FADA69"/>
</linearGradient>
</defs>
</svg>
