<svg width="116" height="84" viewBox="0 0 116 84" fill="none" xmlns="http://www.w3.org/2000/svg">
<path d="M4.70007 30.625H51.7902C55.5902 30.625 59.2302 29.012 61.9202 26.14C64.6102 23.268 66.1201 19.374 66.1201 15.312C66.1201 11.251 64.6102 7.35699 61.9202 4.48499C59.2302 1.61299 55.5902 0 51.7902 0H45.6501C44.5601 0 43.5201 0.461006 42.7501 1.28101C41.9801 2.10201 41.5502 3.215 41.5502 4.375C41.5502 5.535 41.9801 6.64799 42.7501 7.46899C43.5201 8.28899 44.5601 8.75 45.6501 8.75H51.7902C53.4202 8.75 54.9801 9.441 56.1301 10.672C57.2801 11.903 57.9302 13.572 57.9302 15.312C57.9302 17.053 57.2801 18.722 56.1301 19.953C54.9801 21.184 53.4202 21.875 51.7902 21.875H4.70007C3.61007 21.875 2.57017 22.336 1.80017 23.156C1.03017 23.977 0.600098 25.09 0.600098 26.25C0.600098 27.41 1.03017 28.523 1.80017 29.344C2.57017 30.164 3.61007 30.625 4.70007 30.625Z" fill="url(#paint0_linear_3_56)"/>
<path d="M94.7802 26.25H100.93C102.56 26.25 104.12 26.941 105.27 28.172C106.42 29.403 107.07 31.072 107.07 32.812C107.07 34.553 106.42 36.222 105.27 37.453C104.12 38.684 102.56 39.375 100.93 39.375H57.9302C56.8402 39.375 55.8002 39.836 55.0302 40.656C54.2702 41.477 53.8301 42.59 53.8301 43.75C53.8301 44.91 54.2702 46.023 55.0302 46.844C55.8002 47.664 56.8402 48.125 57.9302 48.125H100.93C104.73 48.125 108.37 46.512 111.06 43.64C113.75 40.768 115.26 36.874 115.26 32.812C115.26 28.751 113.75 24.857 111.06 21.985C108.37 19.113 104.73 17.5 100.93 17.5H94.7802C93.7001 17.5 92.6601 17.961 91.8901 18.781C91.1201 19.602 90.6901 20.715 90.6901 21.875C90.6901 23.035 91.1201 24.148 91.8901 24.969C92.6601 25.789 93.7001 26.25 94.7802 26.25Z" fill="url(#paint1_linear_3_56)"/>
<path d="M25.1702 39.375C24.0802 39.375 23.0401 39.836 22.2701 40.656C21.5101 41.477 21.0801 42.59 21.0801 43.75C21.0801 44.91 21.5101 46.023 22.2701 46.844C23.0401 47.664 24.0802 48.125 25.1702 48.125H41.5502C42.6402 48.125 43.6801 47.664 44.4501 46.844C45.2101 46.023 45.6501 44.91 45.6501 43.75C45.6501 42.59 45.2101 41.477 44.4501 40.656C43.6801 39.836 42.6402 39.375 41.5502 39.375H25.1702Z" fill="url(#paint2_linear_3_56)"/>
<path d="M100.93 52.5H78.41C77.32 52.5 76.28 52.961 75.51 53.781C74.74 54.602 74.3101 55.715 74.3101 56.875C74.3101 58.035 74.74 59.148 75.51 59.969C76.28 60.789 77.32 61.25 78.41 61.25H100.93C102.56 61.25 104.12 61.941 105.27 63.172C106.42 64.403 107.07 66.072 107.07 67.812C107.07 69.553 106.42 71.222 105.27 72.453C104.12 73.684 102.56 74.375 100.93 74.375H94.79C93.7 74.375 92.66 74.836 91.89 75.656C91.12 76.477 90.6899 77.59 90.6899 78.75C90.6899 79.91 91.12 81.023 91.89 81.844C92.66 82.664 93.7 83.125 94.79 83.125H100.93C104.73 83.125 108.37 81.512 111.06 78.64C113.75 75.768 115.26 71.874 115.26 67.812C115.26 63.751 113.75 59.857 111.06 56.985C108.37 54.113 104.73 52.5 100.93 52.5Z" fill="url(#paint3_linear_3_56)"/>
<path d="M62.0302 52.5H4.70007C3.61007 52.5 2.57017 52.961 1.80017 53.781C1.03017 54.602 0.600098 55.715 0.600098 56.875C0.600098 58.035 1.03017 59.148 1.80017 59.969C2.57017 60.789 3.61007 61.25 4.70007 61.25H62.0302C63.1102 61.25 64.1502 60.789 64.9202 59.969C65.6902 59.148 66.1201 58.035 66.1201 56.875C66.1201 55.715 65.6902 54.602 64.9202 53.781C64.1502 52.961 63.1102 52.5 62.0302 52.5Z" fill="url(#paint4_linear_3_56)"/>
<path d="M53.8298 70H29.2599C28.1799 70 27.1399 70.461 26.3699 71.281C25.5999 72.102 25.1699 73.215 25.1699 74.375C25.1699 75.535 25.5999 76.648 26.3699 77.469C27.1399 78.289 28.1799 78.75 29.2599 78.75H53.8298C54.9198 78.75 55.9599 78.289 56.7299 77.469C57.4999 76.648 57.9299 75.535 57.9299 74.375C57.9299 73.215 57.4999 72.102 56.7299 71.281C55.9599 70.461 54.9198 70 53.8298 70Z" fill="url(#paint5_linear_3_56)"/>
<path d="M12.8901 70H4.70007C3.61007 70 2.57017 70.461 1.80017 71.281C1.03017 72.102 0.600098 73.215 0.600098 74.375C0.600098 75.535 1.03017 76.648 1.80017 77.469C2.57017 78.289 3.61007 78.75 4.70007 78.75H12.8901C13.9701 78.75 15.0102 78.289 15.7802 77.469C16.5502 76.648 16.9801 75.535 16.9801 74.375C16.9801 73.215 16.5502 72.102 15.7802 71.281C15.0102 70.461 13.9701 70 12.8901 70Z" fill="url(#paint6_linear_3_56)"/>
<defs>
<linearGradient id="paint0_linear_3_56" x1="33.3601" y1="0" x2="33.3601" y2="30.625" gradientUnits="userSpaceOnUse">
<stop stop-color="#9EA8E1"/>
<stop offset="1" stop-color="#D0D7F1"/>
</linearGradient>
<linearGradient id="paint1_linear_3_56" x1="84.5501" y1="17.5" x2="84.5501" y2="48.125" gradientUnits="userSpaceOnUse">
<stop stop-color="#9EA8E1"/>
<stop offset="1" stop-color="#D0D7F1"/>
</linearGradient>
<linearGradient id="paint2_linear_3_56" x1="33.3601" y1="39.375" x2="33.3601" y2="48.125" gradientUnits="userSpaceOnUse">
<stop stop-color="#9EA8E1"/>
<stop offset="1" stop-color="#D0D7F1"/>
</linearGradient>
<linearGradient id="paint3_linear_3_56" x1="94.79" y1="52.5" x2="94.79" y2="83.125" gradientUnits="userSpaceOnUse">
<stop stop-color="#9EA8E1"/>
<stop offset="1" stop-color="#D0D7F1"/>
</linearGradient>
<linearGradient id="paint4_linear_3_56" x1="33.3601" y1="52.5" x2="33.3601" y2="61.25" gradientUnits="userSpaceOnUse">
<stop stop-color="#9EA8E1"/>
<stop offset="1" stop-color="#D0D7F1"/>
</linearGradient>
<linearGradient id="paint5_linear_3_56" x1="41.5499" y1="70" x2="41.5499" y2="78.75" gradientUnits="userSpaceOnUse">
<stop stop-color="#9EA8E1"/>
<stop offset="1" stop-color="#D0D7F1"/>
</linearGradient>
<linearGradient id="paint6_linear_3_56" x1="8.7901" y1="70" x2="8.7901" y2="78.75" gradientUnits="userSpaceOnUse">
<stop stop-color="#9EA8E1"/>
<stop offset="1" stop-color="#D0D7F1"/>
</linearGradient>
</defs>
</svg>
